<svg width="153" height="125" viewBox="0 0 153 125" fill="none" xmlns="http://www.w3.org/2000/svg">
<path d="M134.472 0.00185567C130.336 -0.0595193 120.728 1.34898 104.687 12.1188C95.944 9.92697 86.6417 8.84535 77.3235 8.84535C67.0708 8.84535 56.7098 10.1513 47.0475 12.8102C24.0167 -2.95064 13.8511 0.27923 13.8511 0.27923C7.21457 16.9271 11.3156 29.2527 12.5621 32.3138C4.76186 40.7586 0 51.5422 0 64.7587C0 74.7364 1.13209 83.6857 3.89794 91.4653C4.05133 92.0657 4.00161 91.9318 4.26006 92.4458C4.8694 94.0563 5.54691 95.6195 6.3084 97.1293C6.56933 97.6725 6.80684 98.0747 6.80684 98.0747C14.5819 112.613 29.9091 122.004 57.1798 124.953L98.4253 125C127.508 122.107 141.464 112.688 147.895 98.0511L148.304 97.098C148.913 95.6195 149.444 94.0812 150.897 88.9028C152.35 83.7244 153 74.7563 153 64.7547C153 50.4103 147.629 38.9326 138.908 30.2005C140.432 25.2655 142.468 14.3057 136.875 0.27523C136.875 0.27523 136.091 0.0258557 134.472 0.00173067L134.472 0.00185567ZM101.969 52.6416C108.684 52.6269 114.437 53.7836 118.756 58.3289V58.3328C124.16 64.0254 127.323 70.8984 127.323 78.305C127.323 112.887 105.15 113.828 77.8025 113.828C50.4498 113.828 28.2823 109.036 28.2823 78.305C28.2823 70.9474 31.3987 64.1156 36.7363 58.4461C45.6398 48.9973 60.7069 54.0008 77.8026 54.0008C86.5781 53.9994 94.8199 52.6571 101.969 52.6414L101.969 52.6416ZM51.0271 62.8251C45.3366 62.8251 40.7234 70.5427 40.7234 80.067C40.7234 89.5928 45.3364 97.3129 51.0271 97.3129C56.7175 97.3129 61.3307 89.5928 61.3307 80.067C61.3307 70.544 56.7178 62.8319 51.0271 62.8251ZM106.31 62.8251C100.62 62.8251 96.0067 70.5427 96.0067 80.067C96.0067 89.5928 100.62 97.3129 106.31 97.3129C112.001 97.3129 116.614 89.5928 116.614 80.067C116.614 70.544 112.001 62.8319 106.31 62.8251Z" fill="white"/>
</svg>
